<svg width="31" height="30" viewBox="0 0 31 30" fill="none" xmlns="http://www.w3.org/2000/svg">
<path d="M28.6062 0H2.39384C1.75918 0.000738332 1.15072 0.263148 0.701941 0.729661C0.253164 1.19617 0.00072309 1.82869 0 2.48845V27.5115C0.00072309 28.1713 0.253164 28.8038 0.701941 29.2703C1.15072 29.7368 1.75918 29.9993 2.39384 30H28.6062C29.2408 29.9993 29.8493 29.7368 30.2981 29.2703C30.7468 28.8038 30.9993 28.1713 31 27.5115V2.48845C30.9993 1.82869 30.7468 1.19617 30.2981 0.729661C29.8493 0.263148 29.2408 0.000738332 28.6062 0ZM20.2424 7.81609H10.7576V7.55031C10.7576 5.3512 12.885 3.56211 15.5 3.56211C18.115 3.56211 20.2424 5.3512 20.2424 7.55031V7.81609ZM15.5 2.2529C13.573 2.2529 11.8564 3.0595 10.7576 4.30928V1.30918H20.2424V4.30928C19.1436 3.0595 17.427 2.2529 15.5 2.2529ZM21.5019 1.30921H28.6062C28.9069 1.30955 29.1953 1.4339 29.4079 1.65497C29.6206 1.87605 29.7403 2.17579 29.7406 2.48845V27.5115C29.7403 27.8242 29.6206 28.1239 29.4079 28.345C29.1953 28.5661 28.9069 28.6905 28.6062 28.6908H2.39384C2.09308 28.6905 1.80473 28.5661 1.59206 28.345C1.37938 28.1239 1.25975 27.8242 1.25941 27.5115V2.48845C1.25975 2.17579 1.37938 1.87605 1.59206 1.65497C1.80473 1.4339 2.09308 1.30955 2.39384 1.30921H9.49815V9.12529H21.5019V1.30921Z" fill="white"/>
<path d="M16.1296 4.38684H14.8702V7.02571H16.1296V4.38684Z" fill="white"/>
<path d="M10.9212 14.2957C11.0162 13.4478 10.8006 12.5939 10.3175 11.9038C9.83437 11.2137 9.11903 10.7379 8.31379 10.5711C8.24067 10.5562 8.16754 10.5414 8.09442 10.5266C7.66691 10.4398 7.22699 10.4431 6.80074 10.5363C6.37449 10.6295 5.97057 10.8107 5.61292 11.0692C5.25528 11.3277 4.95118 11.6582 4.71866 12.0411C4.48613 12.424 4.32991 12.8515 4.25925 13.2983C3.71304 16.7027 4.23187 20.1995 5.73947 23.2746C5.93635 23.6785 6.20923 24.0372 6.54192 24.3295C6.87462 24.6217 7.26037 24.8416 7.67631 24.976C8.09225 25.1105 8.52991 25.1567 8.96337 25.1121C9.39683 25.0675 9.81726 24.9328 10.1998 24.7162L10.3961 24.605C11.1155 24.1938 11.6597 23.516 11.9204 22.7066C12.181 21.8972 12.139 21.0155 11.8027 20.2368C11.0087 18.3723 10.7046 16.3222 10.9212 14.2957Z" fill="white"/>
<path d="M22.9056 10.5266C22.8325 10.5414 22.7594 10.5562 22.6863 10.5711C21.881 10.7379 21.1657 11.2137 20.6825 11.9038C20.1994 12.5939 19.9839 13.4478 20.0788 14.2956C20.2955 16.3222 19.9913 18.3722 19.1973 20.2368C18.861 21.0154 18.819 21.8972 19.0797 22.7066C19.3403 23.516 19.8845 24.1937 20.604 24.605L20.8003 24.7161C21.1828 24.9328 21.6032 25.0674 22.0367 25.112C22.4701 25.1567 22.9078 25.1104 23.3237 24.976C23.7397 24.8415 24.1254 24.6217 24.4581 24.3294C24.7908 24.0371 25.0637 23.6784 25.2606 23.2745C26.7682 20.1994 27.287 16.7027 26.7408 13.2982C26.6701 12.8514 26.5139 12.4239 26.2814 12.041C26.0488 11.6582 25.7448 11.3277 25.3871 11.0692C25.0295 10.8107 24.6255 10.6295 24.1993 10.5363C23.773 10.4431 23.3331 10.4398 22.9056 10.5266Z" fill="white"/>
</svg>
