<svg width="27" height="30" viewBox="0 0 27 30" fill="none" xmlns="http://www.w3.org/2000/svg">
<path d="M26.9405 0.237715H26.881H26.6826L25.8494 0.217906L24.5004 0.198096C23.1315 0.178287 21.7825 0.158477 20.4137 0.118858C14.978 0.039619 9.52241 0 4.06686 0H0.833211H0.218222H0.0595149H0.0198381H0V0.0198093L0.0396769 0.0792385L0.198384 0.356573L0.813372 1.42629L1.30933 2.2583L1.64658 2.79316C2.10287 3.50631 2.57899 4.23926 3.1543 4.89298C3.72961 5.56651 4.40411 6.18061 5.17781 6.65604C5.95151 7.13147 6.80455 7.48804 7.67744 7.68614C8.37179 7.84462 9.06613 7.90405 9.74063 7.94367C9.74063 8.12195 9.74063 8.28043 9.74063 8.4191C9.74063 8.73605 9.76047 9.0332 9.76047 9.35015V10.301V11.0934C9.00661 11.4104 8.29243 11.8264 7.67744 12.381C6.68552 13.2328 5.91183 14.362 5.49522 15.5902C5.05878 16.8382 4.95959 18.1456 5.07862 19.4333C5.21749 20.7209 5.65393 22.0085 6.40779 23.098C6.62601 23.4348 6.90375 23.7319 7.16165 24.0291C7.45922 24.3064 7.73696 24.5838 8.07421 24.8215C8.35195 25.0394 8.64952 25.2177 8.9471 25.396C8.76855 25.7723 8.57017 26.1289 8.33211 26.4855C8.27259 26.5845 8.21308 26.6638 8.15356 26.7628C8.07421 26.8619 8.05437 26.9015 7.99486 26.9807C7.87583 27.1194 7.71712 27.2581 7.51874 27.4363L7.43938 27.5156L7.34019 27.6146C7.28068 27.6939 7.20132 27.7929 7.14181 27.8722C7.02278 28.0703 6.94342 28.2684 6.92359 28.4863C6.90375 28.7042 7.00294 28.9221 7.10213 29.1004C7.16165 29.1796 7.22116 29.2786 7.32035 29.3579C7.39971 29.4371 7.4989 29.5164 7.57825 29.5758C7.95518 29.8135 8.25276 29.8729 8.51065 29.9126C8.78839 29.972 9.04629 29.9918 9.30419 29.9918C9.81999 30.0116 10.2961 29.9918 10.7722 29.972C11.7245 29.9126 12.6767 29.8135 13.5893 29.7343C13.8075 29.7145 14.0456 29.6947 14.2439 29.6947C14.4423 29.6947 14.7002 29.6947 14.9383 29.6947H16.3468C18.1323 29.6947 19.5606 29.3975 19.5606 29.0211C19.5606 28.6447 18.1124 28.3476 16.3468 28.3476H14.9383C14.7002 28.3476 14.482 28.3476 14.2241 28.3476C13.9662 28.3476 13.7281 28.3674 13.4901 28.3872C12.5378 28.4665 11.6253 28.5853 10.7127 28.6249C10.2564 28.6447 9.80015 28.6645 9.38354 28.6447C9.16532 28.6249 8.96694 28.6249 8.76855 28.5853C8.66936 28.5655 8.59001 28.5457 8.51065 28.5259L8.45114 28.5061C8.4313 28.5061 8.4313 28.5061 8.4313 28.4863L8.39162 28.4665L8.47098 28.3872C8.62968 28.2485 8.80823 28.0703 9.00661 27.8722C9.08597 27.7731 9.22484 27.6146 9.28435 27.5354C9.3637 27.4363 9.42322 27.3373 9.50257 27.2383C9.76047 26.8421 9.99853 26.4261 10.2168 25.9704C10.5738 26.1289 10.9508 26.2082 11.3277 26.327C11.7046 26.4063 12.1014 26.5053 12.4982 26.5449C13.2719 26.644 14.0654 26.644 14.8589 26.5647C15.6326 26.4855 16.4063 26.3072 17.1602 26.0299C17.3784 25.9506 17.5768 25.8714 17.7752 25.7723C17.8744 25.9308 17.9735 26.0893 18.0727 26.2478C18.5489 27.0005 19.0448 27.7731 19.4217 28.5457C19.5011 28.7042 19.5408 28.823 19.5805 28.9023C19.5805 28.9221 19.6201 28.9221 19.6201 28.9419C19.6201 28.9617 19.6003 28.9815 19.6003 29.0013C19.6003 29.0211 19.6201 29.0409 19.6598 29.0409C19.6796 29.0409 19.7193 29.0409 19.7392 29.0013C19.7788 28.9815 19.7788 28.9419 19.7987 28.9023C19.8384 28.7636 19.7987 28.5853 19.7193 28.3872C19.3622 27.5354 18.906 26.7628 18.4695 25.9704C18.3902 25.812 18.291 25.6733 18.2116 25.5148C18.5687 25.3167 18.906 25.1186 19.2234 24.8809C20.5327 23.9499 21.5246 22.5632 22.0206 21.0378C22.2388 20.3049 22.2785 19.6115 22.1793 19.1163C22.0801 18.6211 21.9214 18.3437 21.7428 18.3437C21.5643 18.3437 21.3659 18.6211 21.227 19.0371C21.0683 19.4531 20.9096 20.0077 20.7311 20.6218C20.3145 21.8897 19.5209 22.999 18.4298 23.7716C17.8942 24.148 17.299 24.4847 16.6642 24.7026C16.0294 24.9205 15.3747 25.0988 14.6804 25.1582C14.0059 25.2375 13.3115 25.2375 12.637 25.1384C12.2998 25.1186 11.9625 25.0196 11.6253 24.9601C11.3079 24.8611 10.9706 24.7819 10.6532 24.6432C10.3358 24.5441 10.0382 24.3659 9.74063 24.2272C9.46289 24.0489 9.16532 23.8904 8.90742 23.6725C8.62968 23.4744 8.41146 23.2367 8.15356 23.0188C7.93534 22.7613 7.69728 22.5236 7.53857 22.2462C6.92359 21.3548 6.54666 20.3049 6.42763 19.2154C6.3086 18.106 6.38795 16.9769 6.7252 15.9269C7.06245 14.8968 7.67744 13.946 8.49082 13.213C9.30419 12.4603 10.3159 11.9452 11.3872 11.6283C12.4585 11.2915 13.6289 11.1924 14.7597 11.3113C15.8905 11.4104 17.0213 11.7273 18.0132 12.282C19.0051 12.8366 19.8979 13.6092 20.493 14.5799C21.108 15.5506 21.4453 16.6995 21.5445 17.8485C21.5643 18.1456 21.6635 18.3041 21.7428 18.3041C21.8222 18.3041 21.9015 18.1456 21.9015 17.8287C21.8817 16.6203 21.604 15.3723 21.0088 14.2828C20.4137 13.1734 19.5011 12.2622 18.4298 11.5886C18.2116 11.45 17.9735 11.3113 17.7157 11.1924C17.7553 10.8359 17.795 10.4793 17.8148 10.1227C17.8545 9.6671 17.8744 9.19167 17.8545 8.71624C17.8545 8.59738 17.8545 8.47853 17.8347 8.33986C17.8148 8.221 17.8148 8.08233 17.795 7.96348L17.7553 7.76538C17.7355 7.70595 17.7156 7.62671 17.6958 7.54747C17.9934 7.42861 18.1719 7.30976 18.1719 7.17109C18.1719 6.91356 17.5966 6.71547 16.7634 6.59661C16.565 6.53718 16.3865 6.49756 16.2278 6.47775C15.8707 6.41832 15.5334 6.41832 15.216 6.41832C14.5614 6.41832 13.9265 6.45794 13.2917 6.47775C12.9743 6.49756 12.6569 6.51737 12.3593 6.53718H11.4269C11.3475 6.53718 11.2682 6.53718 11.1888 6.55699C10.9111 6.55699 10.6334 6.55699 10.3556 6.53718C9.52241 6.51737 8.76855 6.45794 8.0147 6.29947C7.26084 6.14099 6.5665 5.84384 5.93167 5.44765C4.66201 4.65527 3.68993 3.38745 2.83688 2.00077L2.51947 1.48572L2.34093 1.34706H4.0867C9.54225 1.34706 14.978 1.30744 20.4335 1.2282C21.8024 1.20839 23.1514 1.18858 24.5202 1.14896L25.036 1.12915L25.2146 1.10934C25.3137 1.10934 25.532 1.04991 25.4129 1.18858L25.3336 1.34706L25.2939 1.42629L25.1947 1.60458C25.036 1.90173 24.8773 2.19887 24.6988 2.4762C24.3615 3.05068 24.0044 3.60535 23.6076 4.14021C23.2109 4.67507 22.7546 5.15051 22.2586 5.56651C22.0206 5.78441 21.7428 5.9627 21.4651 6.14099C21.1874 6.29947 20.9096 6.45794 20.5922 6.5768C20.2946 6.71547 19.9772 6.79471 19.6598 6.89375C19.5011 6.93337 19.3424 6.95318 19.1837 6.9928L18.9456 7.03242L18.7076 7.05223C18.3703 7.07204 18.1918 7.17109 18.1918 7.25033C18.1918 7.32957 18.3703 7.4088 18.7274 7.389H18.9853L19.2432 7.34938C19.4217 7.32957 19.5805 7.30976 19.759 7.28995C20.0963 7.21071 20.4533 7.15128 20.7708 7.01261C21.108 6.91356 21.4254 6.73528 21.7428 6.59661C22.0404 6.41832 22.3578 6.24004 22.6356 6.02213C23.191 5.60613 23.7068 5.11089 24.1433 4.57603C24.5996 4.04117 24.9963 3.4865 25.3733 2.91202C25.5716 2.63468 25.7502 2.33754 25.9287 2.04039L26.2858 1.42629L26.7024 0.693337L26.9206 0.316954L26.9802 0.217906L27 0.198096C26.9603 0.217906 26.9603 0.237715 26.9405 0.237715ZM16.5452 8.0229C16.565 8.06252 16.565 8.08233 16.5849 8.14176L16.6047 8.28043C16.6245 8.35967 16.6245 8.47853 16.6444 8.57757C16.6642 8.67662 16.6642 8.77567 16.6642 8.89453C16.6841 9.31053 16.6841 9.74634 16.6642 10.202C16.6444 10.4397 16.6444 10.6576 16.6245 10.8953C16.0492 10.6972 15.4541 10.5585 14.8589 10.4793C13.6091 10.301 12.3395 10.3604 11.1095 10.6972V10.3604V9.40958C11.1095 9.09262 11.0896 8.75586 11.0896 8.43891C11.0896 8.30024 11.0896 8.14176 11.0896 8.0229C12.518 8.04271 13.9265 8.0229 15.335 8.00309C15.7715 8.00309 16.1683 7.96347 16.5253 7.92385C16.5055 7.92385 16.5253 7.96347 16.5452 8.0229Z" fill="white"/>
<path d="M18.8664 18.4031C18.6878 18.4031 18.4895 18.5814 18.3704 18.8389C18.2316 19.0965 18.0927 19.4332 17.9935 19.8096C17.7356 20.5822 17.2595 21.2557 16.585 21.7311C15.9303 22.2066 15.1169 22.5037 14.2639 22.5829C13.8473 22.6226 13.4108 22.6226 12.9942 22.5829C12.5776 22.5433 12.161 22.4443 11.7841 22.2858C11.5857 22.2264 11.4072 22.1075 11.2286 22.0283C11.0501 21.9094 10.8715 21.8302 10.7128 21.6915C10.5343 21.5727 10.4152 21.434 10.2565 21.2953C10.1375 21.1368 9.97879 20.9982 9.8796 20.8199C9.50267 20.285 9.28445 19.6511 9.2051 18.9578C9.12574 18.2843 9.18526 17.5711 9.38364 16.9372C9.58203 16.3033 9.95896 15.7288 10.4549 15.2732C10.9509 14.7978 11.5659 14.4808 12.2404 14.2629C12.9149 14.045 13.6291 13.9856 14.3432 14.045C15.0574 14.1044 15.7716 14.2827 16.3866 14.6195C17.0214 14.9562 17.5769 15.4317 17.9737 16.0458C18.3704 16.6599 18.6085 17.373 18.6878 18.106C18.7077 18.3041 18.787 18.4229 18.8664 18.4031C18.9457 18.4031 19.0251 18.3041 19.0251 18.0862C19.0251 17.2938 18.8664 16.4816 18.4696 15.7486C18.0927 15.0157 17.4777 14.4016 16.7834 13.946C16.089 13.4903 15.2756 13.213 14.4424 13.0941C13.6092 12.9753 12.7562 12.9951 11.923 13.213C11.1096 13.4309 10.2962 13.7875 9.6217 14.362C8.9472 14.9364 8.4314 15.6892 8.13382 16.5212C7.83625 17.3532 7.77673 18.2446 7.85609 19.0965C7.93544 19.9681 8.23302 20.8397 8.74881 21.5727C8.88768 21.8104 9.08607 22.0085 9.26461 22.2066C9.463 22.3849 9.66138 22.5829 9.8796 22.7414C10.0978 22.9197 10.3359 23.0386 10.5541 23.1772C10.7922 23.2961 11.0302 23.4149 11.2881 23.514C11.7841 23.7121 12.2999 23.831 12.8355 23.8904C13.3513 23.9696 13.887 23.9498 14.4028 23.9102C15.4542 23.7913 16.4858 23.4348 17.3587 22.8009C18.2514 22.1669 18.9259 21.2359 19.2632 20.2058C19.4219 19.7106 19.402 19.2351 19.3227 18.8984C19.2235 18.6012 19.0648 18.4031 18.8664 18.4031Z" fill="white"/>
<path d="M13.51 15.0355C13.1727 15.6496 13.014 16.2637 13.014 16.8778V18.007C13.014 18.0862 13.3116 18.1654 13.6886 18.1654C14.0655 18.1654 14.3631 18.0862 14.3631 18.007V16.8778C14.3631 16.2637 14.1845 15.6496 13.8671 15.0355C13.8473 14.9958 13.5298 14.9958 13.51 15.0355Z" fill="white"/>
</svg>
