<svg width="34" height="30" viewBox="0 0 34 30" fill="none" xmlns="http://www.w3.org/2000/svg">
<path d="M16.9993 0L11.4955 9.71328H22.5038L16.9993 0ZM16.9993 2.52029L20.4367 8.58603H13.562L16.9993 2.52029Z" fill="white"/>
<path d="M23.142 10.8401H10.8571L7.66382 16.4754H26.336L23.142 10.8401ZM11.6461 11.9671H22.3522L24.2682 15.3483H9.73015L11.6461 11.9671Z" fill="white"/>
<path d="M26.9741 17.6024H7.02533L3.83203 23.2376H30.1681L26.9741 17.6024ZM7.81434 18.7294H26.1844L28.1003 22.1106H5.89837L7.81434 18.7294Z" fill="white"/>
<path d="M30.806 24.3648H3.19329L0 30H34L30.806 24.3648ZM3.98231 25.4918H30.0162L31.9322 28.873H2.06633L3.98231 25.4918Z" fill="white"/>
</svg>
