<svg width="47" height="22" viewBox="0 0 47 22" fill="none" xmlns="http://www.w3.org/2000/svg">
<path d="M2.19595 17.149V17.399H2.44595H4.62432H4.87432V17.149V4.851V4.601H4.62432H2.44595H2.19595V4.851V17.149ZM6.30603 3.14908L6.48215 2.97469L6.30603 3.14908C6.38407 3.2279 6.44611 3.32161 6.48848 3.42492C6.53085 3.52823 6.55269 3.63904 6.55269 3.751V18.249C6.55269 18.361 6.53085 18.4718 6.48848 18.5751C6.44611 18.6784 6.38407 18.7721 6.30603 18.8509C6.22799 18.9297 6.13548 18.9921 6.03384 19.0346L6.13032 19.2653L6.03384 19.0346C5.9322 19.0772 5.82336 19.099 5.7135 19.099H1.35676C1.135 19.099 0.921813 19.0101 0.764242 18.8509C0.606586 18.6917 0.517578 18.4752 0.517578 18.249V3.751C0.517578 3.52477 0.606586 3.3083 0.764241 3.14908C0.921813 2.98995 1.135 2.901 1.35676 2.901H5.7135C5.82336 2.901 5.9322 2.92285 6.03384 2.96537C6.13548 3.00788 6.22799 3.07027 6.30603 3.14908Z" fill="white" stroke="#181818" stroke-width="0.5"/>
<path d="M6.55276 19.8V20.05H6.80276H11.8675H12.1175V19.8V2.2V1.95H11.8675H6.80276H6.55276V2.2V19.8ZM12.9567 21.75H5.71357C5.49181 21.75 5.27862 21.6611 5.12105 21.5019C4.9634 21.3427 4.87439 21.1262 4.87439 20.9V1.1C4.87439 0.873773 4.9634 0.657303 5.12105 0.498083C5.27862 0.338947 5.49181 0.25 5.71357 0.25H12.9567C13.1784 0.25 13.3916 0.338947 13.5492 0.498083C13.7068 0.657303 13.7958 0.873772 13.7958 1.1V20.9C13.7958 21.1262 13.7068 21.3427 13.5492 21.5019C13.3916 21.6611 13.1784 21.75 12.9567 21.75Z" fill="white" stroke="#181818" stroke-width="0.5"/>
<path d="M42.1149 17.149V17.399H42.3649H44.5433H44.7933V17.149V4.851V4.601H44.5433H42.3649H42.1149V4.851V17.149ZM46.225 3.14908L46.4026 2.97318L46.225 3.14908C46.3826 3.3083 46.4716 3.52477 46.4716 3.751V18.249C46.4716 18.4752 46.3826 18.6917 46.225 18.8509C46.0674 19.0101 45.8542 19.099 45.6324 19.099H41.2757C41.0539 19.099 40.8408 19.0101 40.6832 18.8509C40.5255 18.6917 40.4365 18.4752 40.4365 18.249V3.751C40.4365 3.52477 40.5255 3.3083 40.6832 3.14908C40.8408 2.98995 41.0539 2.901 41.2757 2.901H45.6324C45.8542 2.901 46.0674 2.98995 46.225 3.14908Z" fill="white" stroke="#181818" stroke-width="0.5"/>
<path d="M34.8714 19.8V20.05H35.1214H40.1861H40.4361V19.8V2.2V1.95H40.1861H35.1214H34.8714V2.2V19.8ZM41.2753 21.75H34.0322C33.8104 21.75 33.5972 21.6611 33.4397 21.5019C33.282 21.3427 33.193 21.1262 33.193 20.9V1.1C33.193 0.873775 33.282 0.657304 33.4397 0.498083C33.5972 0.338946 33.8104 0.25 34.0322 0.25H41.2753C41.497 0.25 41.7102 0.338947 41.8678 0.498083C42.0254 0.657303 42.1144 0.873773 42.1144 1.1V20.9C42.1144 21.1262 42.0254 21.3427 41.8678 21.5019C41.7102 21.6611 41.497 21.75 41.2753 21.75Z" fill="white" stroke="#181818" stroke-width="0.5"/>
<path d="M13.7959 12.1V12.35H14.0459H32.9433H33.1933V12.1V9.9V9.65H32.9433H14.0459H13.7959V9.9V12.1ZM12.3642 13.8019L12.1866 13.9778L12.3642 13.8019C12.2066 13.6427 12.1176 13.4262 12.1176 13.2V8.8C12.1176 8.57377 12.2066 8.3573 12.3642 8.19808C12.5218 8.03894 12.735 7.95 12.9567 7.95H34.0325C34.2542 7.95 34.4674 8.03894 34.625 8.19808C34.7826 8.3573 34.8717 8.57377 34.8717 8.8V13.2C34.8717 13.4262 34.7826 13.6427 34.625 13.8019C34.4674 13.9611 34.2542 14.05 34.0325 14.05H12.9567C12.735 14.05 12.5218 13.9611 12.3642 13.8019Z" fill="white" stroke="#181818" stroke-width="0.5"/>
</svg>
